# xmcd
# 
# Track frame offsets:
#     150
#     12621
#     25796
#     39091
#     49953
#     72963
#     83521
#     93350
#     112390
#     127721
#     156779
#     166923
#     182502
# 
# Disc length: 2601
# 
# Revision: 17
# Processed by: cddbd v1.5.2PL0 Copyright (c) Steve Scherf et al.
# Submitted via: fre:ac v1.0.31
# 
DISCID=9a0a270d
DTITLE=Creedence Clearwater Revival - Willy And The Poor Boyss, 40th Anniversary Editions
DYEAR=1969
DGENRE=Rock/Pop
TTITLE0=Down on the corner
TTITLE1=It came out of the sky
TTITLE2=Cotton fields
TTITLE3=Poorboy shuffle
TTITLE4=Feelin' blue
TTITLE5=Fortunate son
TTITLE6=Don't look now
TTITLE7=The midnight special
TTITLE8=Side o' the road
TTITLE9=Effigy
TTITLE10=Fortunate son [live in Manchester, 01.09.1971)
TTITLE11=It came out of the sky [live in Berlin, 16.09.1971)
TTITLE12=Down on the corner [jam with Booker T. at Fantasy Studios, 1970]
EXTD=YEAR: 1969
EXTT0=
EXTT1=
EXTT2=
EXTT3=
EXTT4=
EXTT5=
EXTT6=
EXTT7=
EXTT8=
EXTT9=
EXTT10=
EXTT11=
EXTT12=
PLAYORDER=
